<?xml version="1.0" encoding="UTF-8"?>
<!DOCTYPE svg PUBLIC "-//W3C//DTD SVG 1.1//EN" "http://www.w3.org/Graphics/SVG/1.1/DTD/svg11.dtd">
<svg xmlns="http://www.w3.org/2000/svg" version="1.1" width="512px" height="512px" style="shape-rendering:geometricPrecision; text-rendering:geometricPrecision; image-rendering:optimizeQuality; fill-rule:evenodd; clip-rule:evenodd" xmlns:xlink="http://www.w3.org/1999/xlink">
<g><path style="opacity:0.993" fill="#88fe96" d="M -0.5,-0.5 C 0.166667,-0.5 0.833333,-0.5 1.5,-0.5C 61.7739,44.3103 122.441,88.6436 183.5,132.5C 184.648,134.755 186.314,136.588 188.5,138C 200.064,146.412 211.731,154.578 223.5,162.5C 238.196,173.855 253.196,184.855 268.5,195.5C 268.5,195.833 268.5,196.167 268.5,196.5C 268.5,213.833 268.5,231.167 268.5,248.5C 232.833,248.5 197.167,248.5 161.5,248.5C 108.243,165.645 54.243,83.312 -0.5,1.5C -0.5,0.833333 -0.5,0.166667 -0.5,-0.5 Z"/></g>
<g><path style="opacity:0.994" fill="#0dc970" d="M 268.5,2.5 C 285.976,10.404 302.976,19.0707 319.5,28.5C 302.5,51.8333 285.5,75.1667 268.5,98.5C 268.5,66.5 268.5,34.5 268.5,2.5 Z"/></g>
<g><path style="opacity:0.995" fill="#04db7a" d="M 268.5,2.5 C 268.5,34.5 268.5,66.5 268.5,98.5C 268.5,98.8333 268.5,99.1667 268.5,99.5C 253.745,120.676 238.745,141.676 223.5,162.5C 211.731,154.578 200.064,146.412 188.5,138C 186.314,136.588 184.648,134.755 183.5,132.5C 189.475,102.291 195.475,71.9572 201.5,41.5C 223.609,28.0458 245.942,15.0458 268.5,2.5 Z"/></g>
<g><path style="opacity:0.981" fill="#00783f" d="M 319.5,28.5 C 383.8,86.7981 447.8,145.465 511.5,204.5C 511.5,205.167 511.5,205.833 511.5,206.5C 451.943,180.554 392.277,154.888 332.5,129.5C 327.433,95.9672 323.1,62.3005 319.5,28.5 Z"/></g>
<g><path style="opacity:0.998" fill="#0da95e" d="M 319.5,28.5 C 323.1,62.3005 327.433,95.9672 332.5,129.5C 335.356,168.82 338.023,208.154 340.5,247.5C 340.167,247.5 339.833,247.5 339.5,247.5C 315.98,230.245 292.314,213.245 268.5,196.5C 268.5,196.167 268.5,195.833 268.5,195.5C 268.5,163.5 268.5,131.5 268.5,99.5C 268.5,99.1667 268.5,98.8333 268.5,98.5C 285.5,75.1667 302.5,51.8333 319.5,28.5 Z"/></g>
<g><path style="opacity:1" fill="#0dca71" d="M 268.5,99.5 C 268.5,131.5 268.5,163.5 268.5,195.5C 253.196,184.855 238.196,173.855 223.5,162.5C 238.745,141.676 253.745,120.676 268.5,99.5 Z"/></g>
<g><path style="opacity:1" fill="#04da7a" d="M 268.5,196.5 C 292.314,213.245 315.98,230.245 339.5,247.5C 316.006,248.498 292.339,248.831 268.5,248.5C 268.5,231.167 268.5,213.833 268.5,196.5 Z"/></g>
<g><path style="opacity:0.994" fill="#04db7a" d="M 161.5,248.5 C 197.167,248.5 232.833,248.5 268.5,248.5C 268.5,291.5 268.5,334.5 268.5,377.5C 195.167,422.167 121.833,466.833 48.5,511.5C 47.5,511.5 46.5,511.5 45.5,511.5C 84.5569,423.992 123.224,336.326 161.5,248.5 Z"/></g>
<g><path style="opacity:0.994" fill="#0dca70" d="M 339.5,247.5 C 339.833,247.5 340.167,247.5 340.5,247.5C 323.173,287.824 305.007,327.824 286,367.5C 280.519,371.489 274.685,374.822 268.5,377.5C 268.5,334.5 268.5,291.5 268.5,248.5C 292.339,248.831 316.006,248.498 339.5,247.5 Z"/></g>
</svg>
